<svg width="200" height="200" viewBox="0 0 200 200" fill="none" xmlns="http://www.w3.org/2000/svg">
<g clip-path="url(#clip0_41_348)">
<mask id="mask0_41_348" style="mask-type:luminance" maskUnits="userSpaceOnUse" x="0" y="0" width="200" height="200">
<path d="M200 0H0V200H200V0Z" fill="white"/>
</mask>
<g mask="url(#mask0_41_348)">
<path d="M100 200C155.228 200 200 155.228 200 100C200 44.7715 155.228 0 100 0C44.7715 0 0 44.7715 0 100C0 155.228 44.7715 200 100 200Z" fill="white"/>
<path d="M26.0645 53.5266C26.0645 51.0266 24.0378 49 21.5379 49C19.0379 49 17.0112 51.0266 17.0112 53.5266V134C17.0112 136.5 19.0379 138.527 21.5379 138.527C24.0378 138.527 26.0645 136.5 26.0645 134V53.5266Z" fill="black"/>
<path d="M105.532 66.6035C105.532 64.1035 103.506 62.0769 101.006 62.0769C98.5056 62.0769 96.479 64.1035 96.479 66.6035V146.071C96.479 148.571 98.5056 150.598 101.006 150.598C103.506 150.598 105.532 148.571 105.532 146.071V66.6035Z" fill="black"/>
<path d="M61.2723 62.0769H61.2723C58.4945 62.0769 56.2427 64.3287 56.2427 67.1065V133.497C56.2427 136.275 58.4945 138.527 61.2723 138.527C64.0501 138.527 66.3019 136.275 66.3019 133.497V67.1065C66.3019 64.3287 64.0501 62.0769 61.2723 62.0769Z" fill="black"/>
<path d="M105.532 66.6035C105.532 64.1035 103.506 62.0769 101.006 62.0769C98.5056 62.0769 96.479 64.1035 96.479 66.6035V134C96.479 136.5 98.5056 138.527 101.006 138.527C103.506 138.527 105.532 136.5 105.532 134V66.6035Z" fill="black"/>
<path d="M61.2723 62.0769H61.2723C58.4945 62.0769 56.2427 64.3287 56.2427 67.1065V133.497C56.2427 136.275 58.4945 138.527 61.2723 138.527C64.0501 138.527 66.3019 136.275 66.3019 133.497V67.1065C66.3019 64.3287 64.0501 62.0769 61.2723 62.0769Z" fill="black"/>
<path d="M66.3013 67.1065V67.1065C66.3013 64.3287 64.0494 62.0769 61.2717 62.0769H22.041C19.2632 62.0769 17.0114 64.3287 17.0114 67.1065V67.1065C17.0114 69.8843 19.2632 72.1361 22.041 72.1361H61.2717C64.0494 72.1361 66.3013 69.8843 66.3013 67.1065Z" fill="black"/>
<path d="M66.3013 105.331V95.2721H17.0114V105.331H66.3013Z" fill="black"/>
<path d="M66.3013 133.497V133.497C66.3013 130.719 64.0494 128.467 61.2717 128.467H22.0409C19.2632 128.467 17.0114 130.719 17.0114 133.497V133.497C17.0114 136.274 19.2632 138.526 22.0409 138.526H61.2717C64.0494 138.526 66.3013 136.274 66.3013 133.497Z" fill="black"/>
<path d="M105.532 133.497V133.497C105.532 130.719 103.28 128.467 100.503 128.467H61.2719C58.4941 128.467 56.2423 130.719 56.2423 133.497V133.497C56.2423 136.274 58.4941 138.526 61.2719 138.526H100.503C103.28 138.526 105.532 136.274 105.532 133.497Z" fill="black"/>
<path d="M105.532 67.1065V67.1065C105.532 64.3287 103.28 62.0769 100.503 62.0769H61.2719C58.4941 62.0769 56.2423 64.3287 56.2423 67.1065V67.1065C56.2423 69.8843 58.4941 72.1361 61.2719 72.1361H100.503C103.28 72.1361 105.532 69.8843 105.532 67.1065Z" fill="black"/>
<path d="M185 67.1065V67.1065C185 64.3287 182.748 62.0769 179.97 62.0769H140.74C137.962 62.0769 135.71 64.3287 135.71 67.1065V67.1065C135.71 69.8843 137.962 72.1361 140.74 72.1361H179.97C182.748 72.1361 185 69.8843 185 67.1065Z" fill="black"/>
<path d="M185 133.497V133.497C185 130.719 182.748 128.467 179.97 128.467H140.74C137.962 128.467 135.71 130.719 135.71 133.497V133.497C135.71 136.274 137.962 138.526 140.74 138.526H179.97C182.748 138.526 185 136.274 185 133.497Z" fill="black"/>
<path d="M141.242 62.0769H141.242C138.186 62.0769 135.709 64.5539 135.709 67.6094V132.994C135.709 136.049 138.186 138.527 141.242 138.527C144.297 138.527 146.774 136.049 146.774 132.994V67.6094C146.774 64.5539 144.297 62.0769 141.242 62.0769Z" fill="black"/>
<path d="M143.995 70.4024C145.866 68.377 145.742 65.2177 143.716 63.3461C141.691 61.4745 138.532 61.5992 136.66 63.6247L105.05 97.8336C103.178 99.8591 103.303 103.018 105.328 104.89C107.354 106.761 110.513 106.637 112.384 104.611L143.995 70.4024Z" fill="black"/>
<path d="M137.042 136.544C138.992 138.494 142.154 138.494 144.104 136.544C146.054 134.594 146.054 131.432 144.104 129.482L112.632 98.0103C110.682 96.0603 107.52 96.0603 105.57 98.0103C103.62 99.9604 103.62 103.122 105.57 105.072L137.042 136.544Z" fill="black"/>
<path d="M26.8916 65.2184C29.0545 66.9666 29.0545 70.2642 26.8916 72.0125C24.0352 74.3213 19.7778 72.2882 19.7778 68.6154C19.7778 64.9426 24.0352 62.9095 26.8916 65.2184Z" fill="black"/>
<path d="M25.6755 93.8864C27.9051 95.6028 27.9051 98.9651 25.6755 100.681C22.8561 102.852 18.7725 100.842 18.7725 97.284C18.7725 93.7259 22.8561 91.716 25.6755 93.8864Z" fill="black"/>
<path d="M60.882 94.8923C63.1116 96.6087 63.1116 99.9711 60.882 101.687C58.0626 103.858 53.979 101.848 53.979 98.2899C53.979 94.7318 58.0626 92.722 60.882 94.8923Z" fill="black"/>
<path d="M62.0987 66.2242C64.2616 67.9725 64.2616 71.27 62.0987 73.0183C59.2423 75.3271 54.9849 73.2941 54.9849 69.6213C54.9849 65.9484 59.2423 63.9154 62.0987 66.2242Z" fill="black"/>
<path d="M61.8879 127.082C64.1175 128.798 64.1175 132.16 61.8879 133.877C59.0685 136.047 54.9849 134.037 54.9849 130.479C54.9849 126.921 59.0685 124.911 61.8879 127.082Z" fill="black"/>
<path d="M25.6755 127.082C27.9051 128.798 27.9051 132.16 25.6755 133.877C22.8561 136.047 18.7725 134.037 18.7725 130.479C18.7725 126.921 22.8561 124.911 25.6755 127.082Z" fill="black"/>
<path d="M62.0987 99.4195C64.2616 101.168 64.2616 104.465 62.0987 106.214C59.2423 108.522 54.9849 106.489 54.9849 102.817C54.9849 99.1437 59.2423 97.1107 62.0987 99.4195Z" fill="black"/>
<path d="M26.8916 98.4135C29.0545 100.162 29.0545 103.459 26.8916 105.208C24.0352 107.516 19.7778 105.483 19.7778 101.811C19.7778 98.1378 24.0352 96.1047 26.8916 98.4135Z" fill="black"/>
<path d="M65.9124 127.082C68.142 128.798 68.142 132.16 65.9124 133.877C63.093 136.047 59.0093 134.037 59.0093 130.479C59.0093 126.921 63.093 124.911 65.9124 127.082Z" fill="black"/>
<path d="M101.329 65.2184C103.492 66.9666 103.492 70.2642 101.329 72.0125C98.4732 74.3213 94.2158 72.2882 94.2158 68.6154C94.2158 64.9426 98.4732 62.9095 101.329 65.2184Z" fill="black"/>
<path d="M66.1231 66.2242C68.286 67.9725 68.286 71.27 66.1231 73.0183C63.2667 75.3271 59.0093 73.2941 59.0093 69.6213C59.0093 65.9484 63.2667 63.9154 66.1231 66.2242Z" fill="black"/>
<path d="M102.125 127.082C104.354 128.798 104.354 132.16 102.125 133.877C99.3054 136.047 95.2217 134.037 95.2217 130.479C95.2217 126.921 99.3054 124.911 102.125 127.082Z" fill="black"/>
<path d="M101.329 131.609C103.492 133.357 103.492 136.655 101.329 138.403C98.4732 140.712 94.2158 138.679 94.2158 135.006C94.2158 131.333 98.4732 129.3 101.329 131.609Z" fill="black"/>
<path d="M25.6755 60.6912C27.9051 62.4075 27.9051 65.7699 25.6755 67.4862C22.8561 69.6566 18.7725 67.6467 18.7725 64.0887C18.7725 60.5307 22.8561 58.5208 25.6755 60.6912Z" fill="black"/>
<path d="M146.596 66.2242C148.759 67.9725 148.759 71.27 146.596 73.0183C143.739 75.3271 139.482 73.2941 139.482 69.6213C139.482 65.9484 143.739 63.9154 146.596 66.2242Z" fill="black"/>
<path d="M146.385 127.082C148.614 128.798 148.614 132.16 146.385 133.877C143.565 136.047 139.482 134.037 139.482 130.479C139.482 126.921 143.565 124.911 146.385 127.082Z" fill="black"/>
<path d="M140.35 121.046C142.579 122.762 142.579 126.125 140.35 127.841C137.53 130.012 133.447 128.002 133.447 124.444C133.447 120.886 137.53 118.876 140.35 121.046Z" fill="black"/>
<path d="M140.56 73.2656C142.723 75.0139 142.723 78.3114 140.56 80.0597C137.704 82.3685 133.447 80.3355 133.447 76.6626C133.447 72.9898 137.704 70.9568 140.56 73.2656Z" fill="black"/>
<path d="M114.196 96.9042C116.425 98.6205 116.425 101.983 114.196 103.699C111.376 105.87 107.293 103.86 107.293 100.302C107.293 96.7437 111.376 94.7338 114.196 96.9042Z" fill="black"/>
<path d="M107.366 99.4195C109.529 101.168 109.529 104.465 107.366 106.214C104.509 108.522 100.252 106.489 100.252 102.817C100.252 99.1437 104.509 97.1107 107.366 99.4195Z" fill="black"/>
<path d="M106.148 95.8983C108.378 97.6146 108.378 100.977 106.148 102.693C103.329 104.864 99.2451 102.854 99.2451 99.2958C99.2451 95.7378 103.329 93.7279 106.148 95.8983Z" fill="black"/>
</g>
<circle cx="58.5" cy="33.5" r="12.4" fill="#632BE6" stroke="black" stroke-width="0.2"/>
<circle cx="100.5" cy="20.5" r="12.4" fill="#9DEF78" stroke="black" stroke-width="0.2"/>
<circle cx="142.5" cy="33.5" r="12.4" fill="#5FECD2" stroke="black" stroke-width="0.2"/>
<path d="M42.89 175V160.006H52.361V162.631H46.061V165.76H47.321C48.735 165.76 49.89 165.956 50.786 166.348C51.696 166.74 52.368 167.279 52.802 167.965C53.236 168.651 53.453 169.435 53.453 170.317C53.453 171.297 53.236 172.137 52.802 172.837C52.368 173.537 51.696 174.076 50.786 174.454C49.876 174.818 48.7 175 47.258 175H42.89ZM47.132 172.396C48.098 172.396 48.854 172.242 49.4 171.934C49.96 171.626 50.24 171.087 50.24 170.317C50.24 169.785 50.1 169.379 49.82 169.099C49.554 168.819 49.169 168.63 48.665 168.532C48.175 168.42 47.58 168.364 46.88 168.364H46.061V172.396H47.132ZM64.9126 175H56.2816V160.006H64.9126V162.61H59.4526V165.907H64.5346V168.511H59.4526V172.375H64.9126V175ZM72.8206 160.006C74.7526 160.006 76.1596 160.426 77.0416 161.266C77.9376 162.092 78.3856 163.233 78.3856 164.689C78.3856 165.347 78.2876 165.977 78.0916 166.579C77.8956 167.167 77.5666 167.699 77.1046 168.175C76.6566 168.637 76.0616 169.001 75.3196 169.267C74.5776 169.533 73.6606 169.666 72.5686 169.666H71.2036V175H68.0326V160.006H72.8206ZM72.6526 162.61H71.2036V167.062H72.2536C72.8556 167.062 73.3736 166.985 73.8076 166.831C74.2416 166.677 74.5776 166.432 74.8156 166.096C75.0536 165.76 75.1726 165.326 75.1726 164.794C75.1726 164.052 74.9696 163.506 74.5636 163.156C74.1576 162.792 73.5206 162.61 72.6526 162.61ZM89.8501 175H81.2191V160.006H89.8501V162.61H84.3901V165.907H89.4721V168.511H84.3901V172.375H89.8501V175ZM102.441 160.006V162.631H96.1411V175H92.9701V160.006H102.441ZM117.939 167.482C117.939 168.644 117.792 169.701 117.498 170.653C117.218 171.591 116.784 172.403 116.196 173.089C115.622 173.775 114.88 174.3 113.97 174.664C113.074 175.028 112.017 175.21 110.799 175.21C109.581 175.21 108.517 175.028 107.607 174.664C106.711 174.286 105.969 173.761 105.381 173.089C104.807 172.403 104.373 171.584 104.079 170.632C103.799 169.68 103.659 168.623 103.659 167.461C103.659 165.907 103.911 164.556 104.415 163.408C104.933 162.26 105.717 161.371 106.767 160.741C107.831 160.097 109.182 159.775 110.82 159.775C112.444 159.775 113.781 160.097 114.831 160.741C115.881 161.371 116.658 162.267 117.162 163.429C117.68 164.577 117.939 165.928 117.939 167.482ZM106.998 167.482C106.998 168.532 107.131 169.435 107.397 170.191C107.663 170.947 108.076 171.528 108.636 171.934C109.196 172.34 109.917 172.543 110.799 172.543C111.709 172.543 112.437 172.34 112.983 171.934C113.543 171.528 113.949 170.947 114.201 170.191C114.467 169.435 114.6 168.532 114.6 167.482C114.6 165.9 114.306 164.661 113.718 163.765C113.13 162.869 112.164 162.421 110.82 162.421C109.924 162.421 109.196 162.624 108.636 163.03C108.076 163.436 107.663 164.017 107.397 164.773C107.131 165.529 106.998 166.432 106.998 167.482ZM127.387 175L123.775 163.24H123.691C123.705 163.52 123.726 163.94 123.754 164.5C123.782 165.06 123.81 165.662 123.838 166.306C123.866 166.936 123.88 167.51 123.88 168.028V175H121.045V160.006H125.371L128.92 171.472H128.983L132.742 160.006H137.068V175H134.107V167.902C134.107 167.426 134.114 166.88 134.128 166.264C134.156 165.648 134.177 165.067 134.191 164.521C134.219 163.961 134.24 163.541 134.254 163.261H134.17L130.306 175H127.387ZM149.487 175H140.856V160.006H149.487V162.61H144.027V165.907H149.109V168.511H144.027V172.375H149.487V175ZM158.382 175H155.211V162.652H151.137V160.006H162.456V162.652H158.382V175Z" fill="black"/>
</g>
<defs>
<clipPath id="clip0_41_348">
<rect width="200" height="200" fill="white"/>
</clipPath>
</defs>
</svg>
